<svg xmlns="http://www.w3.org/2000/svg" width="1920" height="3080"><path d="M1028,1817L826,1860L1033,2022Z" fill="#ffd56e" stroke="#ffd56e" stroke-width="1.51"/><path d="M826,1860L770,2025L1033,2022Z" fill="#ffd163" stroke="#ffd163" stroke-width="1.51"/><path d="M770,2025L879,2349L1033,2022Z" fill="#ffcf5c" stroke="#ffcf5c" stroke-width="1.51"/><path d="M556,1787L645,2105L770,2025Z" fill="#ffcb50" stroke="#ffcb50" stroke-width="1.51"/><path d="M1028,1817L1002,1521L826,1860Z" fill="#ffd776" stroke="#ffd776" stroke-width="1.51"/><path d="M826,1860L556,1787L770,2025Z" fill="#ffce5a" stroke="#ffce5a" stroke-width="1.51"/><path d="M779,1459L556,1787L826,1860Z" fill="#ffd164" stroke="#ffd164" stroke-width="1.51"/><path d="M645,2105L879,2349L770,2025Z" fill="#ffcb4f" stroke="#ffcb4f" stroke-width="1.51"/><path d="M1033,2022L1388,2033L1028,1817Z" fill="#ffcf5b" stroke="#ffcf5b" stroke-width="1.51"/><path d="M1028,1817L1450,1590L1002,1521Z" fill="#ffd36b" stroke="#ffd36b" stroke-width="1.51"/><path d="M1307,2416L1388,2033L1033,2022Z" fill="#ffc946" stroke="#ffc946" stroke-width="1.51"/><path d="M879,2349L999,2390L1033,2022Z" fill="#ffce5a" stroke="#ffce5a" stroke-width="1.51"/><path d="M1388,2033L1405,1808L1028,1817Z" fill="#ffcc53" stroke="#ffcc53" stroke-width="1.51"/><path d="M1002,1521L779,1459L826,1860Z" fill="#ffd775" stroke="#ffd775" stroke-width="1.51"/><path d="M1002,1521L994,1364L779,1459Z" fill="#ffd879" stroke="#ffd879" stroke-width="1.51"/><path d="M1450,1590L994,1364L1002,1521Z" fill="#ffd56e" stroke="#ffd56e" stroke-width="1.51"/><path d="M645,2105L548,2352L879,2349Z" fill="#ffc741" stroke="#ffc741" stroke-width="1.51"/><path d="M879,2349L827,2585L999,2390Z" fill="#ffcb52" stroke="#ffcb52" stroke-width="1.51"/><path d="M194,2164L548,2352L645,2105Z" fill="#ffc22d" stroke="#ffc22d" stroke-width="1.51"/><path d="M1405,1808L1450,1590L1028,1817Z" fill="#ffce5a" stroke="#ffce5a" stroke-width="1.51"/><path d="M1560,1768L1450,1590L1405,1808Z" fill="#ffca4d" stroke="#ffca4d" stroke-width="1.51"/><path d="M999,2390L1307,2416L1033,2022Z" fill="#ffca4c" stroke="#ffca4c" stroke-width="1.51"/><path d="M1131,2673L1307,2416L999,2390Z" fill="#ffc845" stroke="#ffc845" stroke-width="1.51"/><path d="M1739,2061L1560,1768L1388,2033Z" fill="#ffc53e" stroke="#ffc53e" stroke-width="1.51"/><path d="M1388,2033L1560,1768L1405,1808Z" fill="#ffc845" stroke="#ffc845" stroke-width="1.51"/><path d="M779,1459L516,1451L556,1787Z" fill="#ffd162" stroke="#ffd162" stroke-width="1.51"/><path d="M556,1787L204,1828L645,2105Z" fill="#ffc742" stroke="#ffc742" stroke-width="1.51"/><path d="M547,1190L516,1451L779,1459Z" fill="#ffce5a" stroke="#ffce5a" stroke-width="1.51"/><path d="M548,2352L827,2585L879,2349Z" fill="#ffc743" stroke="#ffc743" stroke-width="1.51"/><path d="M994,1364L885,1200L779,1459Z" fill="#ffd570" stroke="#ffd570" stroke-width="1.51"/><path d="M1085,903L885,1200L994,1364Z" fill="#ffd36a" stroke="#ffd36a" stroke-width="1.51"/><path d="M1450,1590L1393,1206L994,1364Z" fill="#ffd05d" stroke="#ffd05d" stroke-width="1.51"/><path d="M1560,1768L1601,1568L1450,1590Z" fill="#ffcb51" stroke="#ffcb51" stroke-width="1.51"/><path d="M320,1452L204,1828L556,1787Z" fill="#fdc84d" stroke="#fdc84d" stroke-width="1.51"/><path d="M827,2585L1131,2673L999,2390Z" fill="#ffcc53" stroke="#ffcc53" stroke-width="1.51"/><path d="M516,1451L320,1452L556,1787Z" fill="#ffcd56" stroke="#ffcd56" stroke-width="1.51"/><path d="M352,1255L320,1452L516,1451Z" fill="#fec94d" stroke="#fec94d" stroke-width="1.51"/><path d="M204,1828L194,2164L645,2105Z" fill="#fcc137" stroke="#fcc137" stroke-width="1.51"/><path d="M548,2352L569,2628L827,2585Z" fill="#ffc437" stroke="#ffc437" stroke-width="1.51"/><path d="M194,2164L361,2467L548,2352Z" fill="#fcbd21" stroke="#fcbd21" stroke-width="1.51"/><path d="M827,2585L1011,2925L1131,2673Z" fill="#ffca51" stroke="#ffca51" stroke-width="1.51"/><path d="M361,2467L569,2628L548,2352Z" fill="#ffc124" stroke="#ffc124" stroke-width="1.51"/><path d="M1705,2303L1739,2061L1388,2033Z" fill="#ffc230" stroke="#ffc230" stroke-width="1.51"/><path d="M1560,1768L1915,1602L1601,1568Z" fill="#ffc94e" stroke="#ffc94e" stroke-width="1.51"/><path d="M1705,2303L1388,2033L1307,2416Z" fill="#ffc22a" stroke="#ffc22a" stroke-width="1.51"/><path d="M885,1200L547,1190L779,1459Z" fill="#ffd061" stroke="#ffd061" stroke-width="1.51"/><path d="M1672,1308L1393,1206L1450,1590Z" fill="#ffca4e" stroke="#ffca4e" stroke-width="1.51"/><path d="M885,1200L876,1036L547,1190Z" fill="#ffcf5c" stroke="#ffcf5c" stroke-width="1.51"/><path d="M1427,2672L1705,2303L1307,2416Z" fill="#ffc022" stroke="#ffc022" stroke-width="1.51"/><path d="M1085,903L876,1036L885,1200Z" fill="#ffd266" stroke="#ffd266" stroke-width="1.51"/><path d="M-118,1876L11,2130L204,1828Z" fill="#f4b936" stroke="#f4b936" stroke-width="1.51"/><path d="M547,1190L352,1255L516,1451Z" fill="#ffc94a" stroke="#ffc94a" stroke-width="1.51"/><path d="M373,1039L352,1255L547,1190Z" fill="#fec641" stroke="#fec641" stroke-width="1.51"/><path d="M1131,2673L1427,2672L1307,2416Z" fill="#ffc335" stroke="#ffc335" stroke-width="1.51"/><path d="M569,2628L775,2853L827,2585Z" fill="#ffc53e" stroke="#ffc53e" stroke-width="1.51"/><path d="M1131,2673L1429,2827L1427,2672Z" fill="#ffc12e" stroke="#ffc12e" stroke-width="1.51"/><path d="M634,3024L775,2853L569,2628Z" fill="#ffc235" stroke="#ffc235" stroke-width="1.51"/><path d="M1601,1568L1672,1308L1450,1590Z" fill="#ffcb53" stroke="#ffcb53" stroke-width="1.51"/><path d="M1915,1602L1672,1308L1601,1568Z" fill="#ffca51" stroke="#ffca51" stroke-width="1.51"/><path d="M194,2164L-66,2289L361,2467Z" fill="#f6b71c" stroke="#f6b71c" stroke-width="1.51"/><path d="M204,1828L11,2130L194,2164Z" fill="#f6bb32" stroke="#f6bb32" stroke-width="1.51"/><path d="M85,1480L204,1828L320,1452Z" fill="#f9c44f" stroke="#f9c44f" stroke-width="1.51"/><path d="M1739,2061L1901,2014L1560,1768Z" fill="#ffc43a" stroke="#ffc43a" stroke-width="1.51"/><path d="M1705,2303L1901,2014L1739,2061Z" fill="#ffc12d" stroke="#ffc12d" stroke-width="1.51"/><path d="M352,1255L85,1480L320,1452Z" fill="#fac44b" stroke="#fac44b" stroke-width="1.51"/><path d="M775,2853L1011,2925L827,2585Z" fill="#ffc84b" stroke="#ffc84b" stroke-width="1.51"/><path d="M1982,1709L1915,1602L1560,1768Z" fill="#ffc749" stroke="#ffc749" stroke-width="1.51"/><path d="M1675,2719L1845,2450L1705,2303Z" fill="#ffbd1a" stroke="#ffbd1a" stroke-width="1.51"/><path d="M1705,2303L1845,2450L1901,2014Z" fill="#ffbe20" stroke="#ffbe20" stroke-width="1.51"/><path d="M1011,2925L1429,2827L1131,2673Z" fill="#ffc43d" stroke="#ffc43d" stroke-width="1.51"/><path d="M565,894L373,1039L547,1190Z" fill="#ffc63c" stroke="#ffc63c" stroke-width="1.51"/><path d="M1393,1206L1085,903L994,1364Z" fill="#ffcf5c" stroke="#ffcf5c" stroke-width="1.51"/><path d="M1364,940L1085,903L1393,1206Z" fill="#ffca49" stroke="#ffca49" stroke-width="1.51"/><path d="M361,2467L293,2728L569,2628Z" fill="#fdbd1e" stroke="#fdbd1e" stroke-width="1.51"/><path d="M775,2853L634,3024L1011,2925Z" fill="#ffc643" stroke="#ffc643" stroke-width="1.51"/><path d="M5,2621L293,2728L361,2467Z" fill="#f8b718" stroke="#f8b718" stroke-width="1.51"/><path d="M1675,2719L1705,2303L1427,2672Z" fill="#ffbe1c" stroke="#ffbe1c" stroke-width="1.51"/><path d="M352,1255L45,1157L85,1480Z" fill="#f7c043" stroke="#f7c043" stroke-width="1.51"/><path d="M565,894L547,1190L876,1036Z" fill="#ffca4d" stroke="#ffca4d" stroke-width="1.51"/><path d="M2185,1740L1982,1709L1901,2014Z" fill="#ffc43f" stroke="#ffc43f" stroke-width="1.51"/><path d="M1901,2014L1982,1709L1560,1768Z" fill="#ffc541" stroke="#ffc541" stroke-width="1.51"/><path d="M85,1480L-118,1876L204,1828Z" fill="#f5be44" stroke="#f5be44" stroke-width="1.51"/><path d="M11,2130L-66,2289L194,2164Z" fill="#f4b623" stroke="#f4b623" stroke-width="1.51"/><path d="M1598,945L1364,940L1393,1206Z" fill="#ffc539" stroke="#ffc539" stroke-width="1.51"/><path d="M-265,2317L-66,2289L-346,2047Z" fill="#f3b420" stroke="#f3b420" stroke-width="1.51"/><path d="M1429,2827L1675,2719L1427,2672Z" fill="#ffbe1b" stroke="#ffbe1b" stroke-width="1.51"/><path d="M729,777L565,894L876,1036Z" fill="#ffc94a" stroke="#ffc94a" stroke-width="1.51"/><path d="M293,2728L634,3024L569,2628Z" fill="#ffbf20" stroke="#ffbf20" stroke-width="1.51"/><path d="M1411,3113L1642,2914L1429,2827Z" fill="#ffbd18" stroke="#ffbd18" stroke-width="1.51"/><path d="M1672,1308L1598,945L1393,1206Z" fill="#ffc63f" stroke="#ffc63f" stroke-width="1.51"/><path d="M1915,1602L1863,1233L1672,1308Z" fill="#ffc749" stroke="#ffc749" stroke-width="1.51"/><path d="M2200,1253L1863,1233L1915,1602Z" fill="#ffc646" stroke="#ffc646" stroke-width="1.51"/><path d="M1019,618L729,777L1085,903Z" fill="#ffcd56" stroke="#ffcd56" stroke-width="1.51"/><path d="M1085,903L729,777L876,1036Z" fill="#ffcf5a" stroke="#ffcf5a" stroke-width="1.51"/><path d="M293,2728L205,2864L634,3024Z" fill="#fdbb18" stroke="#fdbb18" stroke-width="1.51"/><path d="M-66,2289L5,2621L361,2467Z" fill="#f5b416" stroke="#f5b416" stroke-width="1.51"/><path d="M1364,940L1311,731L1085,903Z" fill="#ffc741" stroke="#ffc741" stroke-width="1.51"/><path d="M1863,1233L1598,945L1672,1308Z" fill="#ffc43d" stroke="#ffc43d" stroke-width="1.51"/><path d="M85,1480L-241,1440L-118,1876Z" fill="#f4be4a" stroke="#f4be4a" stroke-width="1.51"/><path d="M373,1039L45,1157L352,1255Z" fill="#f9c03c" stroke="#f9c03c" stroke-width="1.51"/><path d="M-119,985L45,1157L373,1039Z" fill="#f5ba32" stroke="#f5ba32" stroke-width="1.51"/><path d="M371,759L373,1039L565,894Z" fill="#fec12f" stroke="#fec12f" stroke-width="1.51"/><path d="M5,2621L205,2864L293,2728Z" fill="#f7b413" stroke="#f7b413" stroke-width="1.51"/><path d="M1429,2827L1642,2914L1675,2719Z" fill="#ffbc18" stroke="#ffbc18" stroke-width="1.51"/><path d="M1675,2719L1959,2634L1845,2450Z" fill="#ffbb14" stroke="#ffbb14" stroke-width="1.51"/><path d="M1411,3113L1429,2827L1011,2925Z" fill="#ffc131" stroke="#ffc131" stroke-width="1.51"/><path d="M2247,2399L2246,2076L1901,2014Z" fill="#ffbf27" stroke="#ffbf27" stroke-width="1.51"/><path d="M1936,2954L1959,2634L1675,2719Z" fill="#ffba0e" stroke="#ffba0e" stroke-width="1.51"/><path d="M1656,804L1311,731L1364,940Z" fill="#ffc22a" stroke="#ffc22a" stroke-width="1.51"/><path d="M729,777L629,711L565,894Z" fill="#ffc63a" stroke="#ffc63a" stroke-width="1.51"/><path d="M907,374L629,711L729,777Z" fill="#fdc543" stroke="#fdc543" stroke-width="1.51"/><path d="M2246,2076L2185,1740L1901,2014Z" fill="#ffc238" stroke="#ffc238" stroke-width="1.51"/><path d="M1982,1709L2185,1740L1915,1602Z" fill="#ffc648" stroke="#ffc648" stroke-width="1.51"/><path d="M728,3264L1129,3175L1011,2925Z" fill="#ffc950" stroke="#ffc950" stroke-width="1.51"/><path d="M-66,2289L-277,2580L5,2621Z" fill="#f2b112" stroke="#f2b112" stroke-width="1.51"/><path d="M5,2621L-113,3025L205,2864Z" fill="#f3b009" stroke="#f3b009" stroke-width="1.51"/><path d="M-346,2047L-66,2289L11,2130Z" fill="#f3b526" stroke="#f3b526" stroke-width="1.51"/><path d="M-346,2047L11,2130L-118,1876Z" fill="#f3b730" stroke="#f3b730" stroke-width="1.51"/><path d="M45,1157L-186,1330L85,1480Z" fill="#f3bc41" stroke="#f3bc41" stroke-width="1.51"/><path d="M-119,985L-186,1330L45,1157Z" fill="#f3b937" stroke="#f3b937" stroke-width="1.51"/><path d="M1129,3175L1411,3113L1011,2925Z" fill="#ffc33b" stroke="#ffc33b" stroke-width="1.51"/><path d="M-186,1330L-241,1440L85,1480Z" fill="#f4bd47" stroke="#f4bd47" stroke-width="1.51"/><path d="M629,711L371,759L565,894Z" fill="#ffc22c" stroke="#ffc22c" stroke-width="1.51"/><path d="M-394,1857L-346,2047L-118,1876Z" fill="#f3b937" stroke="#f3b937" stroke-width="1.51"/><path d="M1311,731L1019,618L1085,903Z" fill="#ffc847" stroke="#ffc847" stroke-width="1.51"/><path d="M629,711L501,450L371,759Z" fill="#fdbf26" stroke="#fdbf26" stroke-width="1.51"/><path d="M2247,2399L1901,2014L1845,2450Z" fill="#ffbd1a" stroke="#ffbd1a" stroke-width="1.51"/><path d="M634,3024L728,3264L1011,2925Z" fill="#ffc440" stroke="#ffc440" stroke-width="1.51"/><path d="M261,3281L622,3199L634,3024Z" fill="#ffbd1c" stroke="#ffbd1c" stroke-width="1.51"/><path d="M1311,731L1279,429L1019,618Z" fill="#fcc43f" stroke="#fcc43f" stroke-width="1.51"/><path d="M1598,945L1656,804L1364,940Z" fill="#ffc22e" stroke="#ffc22e" stroke-width="1.51"/><path d="M1915,981L1656,804L1598,945Z" fill="#ffc12b" stroke="#ffc12b" stroke-width="1.51"/><path d="M1915,981L1598,945L1863,1233Z" fill="#ffc234" stroke="#ffc234" stroke-width="1.51"/><path d="M-241,1440L-394,1857L-118,1876Z" fill="#f3bc43" stroke="#f3bc43" stroke-width="1.51"/><path d="M2200,1253L1915,981L1863,1233Z" fill="#ffc239" stroke="#ffc239" stroke-width="1.51"/><path d="M622,3199L728,3264L634,3024Z" fill="#ffc132" stroke="#ffc132" stroke-width="1.51"/><path d="M1746,3440L1734,3196L1411,3113Z" fill="#ffba0f" stroke="#ffba0f" stroke-width="1.51"/><path d="M1959,2634L2247,2399L1845,2450Z" fill="#ffbb13" stroke="#ffbb13" stroke-width="1.51"/><path d="M2263,2744L2247,2399L1959,2634Z" fill="#ffba10" stroke="#ffba10" stroke-width="1.51"/><path d="M1936,2954L1675,2719L1642,2914Z" fill="#ffbb11" stroke="#ffbb11" stroke-width="1.51"/><path d="M205,2864L261,3281L634,3024Z" fill="#fcb913" stroke="#fcb913" stroke-width="1.51"/><path d="M-265,2317L-277,2580L-66,2289Z" fill="#f2b214" stroke="#f2b214" stroke-width="1.51"/><path d="M-368,2817L-277,2580L-265,2317Z" fill="#f2b110" stroke="#f2b110" stroke-width="1.51"/><path d="M-368,2817L-265,2317L-346,2047Z" fill="#f2b214" stroke="#f2b214" stroke-width="1.51"/><path d="M-186,1330L-287,898L-241,1440Z" fill="#f3ba3b" stroke="#f3ba3b" stroke-width="1.51"/><path d="M-241,1440L-287,898L-394,1857Z" fill="#f3bd46" stroke="#f3bd46" stroke-width="1.51"/><path d="M371,759L-119,985L373,1039Z" fill="#f8bb2b" stroke="#f8bb2b" stroke-width="1.51"/><path d="M2306,1506L2200,1253L1915,1602Z" fill="#ffc74b" stroke="#ffc74b" stroke-width="1.51"/><path d="M2306,1506L1915,1602L2185,1740Z" fill="#ffc74c" stroke="#ffc74c" stroke-width="1.51"/><path d="M2247,2399L2306,1506L2246,2076Z" fill="#ffc134" stroke="#ffc134" stroke-width="1.51"/><path d="M2246,2076L2306,1506L2185,1740Z" fill="#ffc542" stroke="#ffc542" stroke-width="1.51"/><path d="M1734,3196L1936,2954L1642,2914Z" fill="#ffb90a" stroke="#ffb90a" stroke-width="1.51"/><path d="M1411,3113L1734,3196L1642,2914Z" fill="#ffbb12" stroke="#ffbb12" stroke-width="1.51"/><path d="M1153,3458L1411,3113L1129,3175Z" fill="#ffc135" stroke="#ffc135" stroke-width="1.51"/><path d="M-113,3025L261,3281L205,2864Z" fill="#f5b107" stroke="#f5b107" stroke-width="1.51"/><path d="M532,3525L756,3536L728,3264Z" fill="#ffc133" stroke="#ffc133" stroke-width="1.51"/><path d="M-368,2817L-113,3025L5,2621Z" fill="#f2af08" stroke="#f2af08" stroke-width="1.51"/><path d="M907,374L501,450L629,711Z" fill="#fbc13a" stroke="#fbc13a" stroke-width="1.51"/><path d="M1658,457L1279,429L1311,731Z" fill="#fbbd24" stroke="#fbbd24" stroke-width="1.51"/><path d="M1658,457L1311,731L1656,804Z" fill="#fdbe21" stroke="#fdbe21" stroke-width="1.51"/><path d="M371,759L-32,687L-119,985Z" fill="#f5b51d" stroke="#f5b51d" stroke-width="1.51"/><path d="M907,374L729,777L1019,618Z" fill="#fdc84f" stroke="#fdc84f" stroke-width="1.51"/><path d="M1096,356L907,374L1019,618Z" fill="#fbc64f" stroke="#fbc64f" stroke-width="1.51"/><path d="M756,3536L1153,3458L728,3264Z" fill="#ffc749" stroke="#ffc749" stroke-width="1.51"/><path d="M728,3264L1153,3458L1129,3175Z" fill="#ffc84c" stroke="#ffc84c" stroke-width="1.51"/><path d="M2247,2399L2263,2744L2306,1506Z" fill="#ffbe22" stroke="#ffbe22" stroke-width="1.51"/><path d="M1936,2954L2263,2744L1959,2634Z" fill="#ffb90a" stroke="#ffb90a" stroke-width="1.51"/><path d="M2163,3031L2263,2744L1936,2954Z" fill="#ffb806" stroke="#ffb806" stroke-width="1.51"/><path d="M1915,981L2023,656L1656,804Z" fill="#ffbd1e" stroke="#ffbd1e" stroke-width="1.51"/><path d="M2200,1253L2111,879L1915,981Z" fill="#ffc131" stroke="#ffc131" stroke-width="1.51"/><path d="M2249,600L2111,879L2200,1253Z" fill="#ffbf26" stroke="#ffbf26" stroke-width="1.51"/><path d="M501,450L355,471L371,759Z" fill="#fabb1f" stroke="#fabb1f" stroke-width="1.51"/><path d="M351,163L355,471L501,450Z" fill="#f6b71b" stroke="#f6b71b" stroke-width="1.51"/><path d="M1279,429L1096,356L1019,618Z" fill="#fbc444" stroke="#fbc444" stroke-width="1.51"/><path d="M-119,985L-287,898L-186,1330Z" fill="#f3b731" stroke="#f3b731" stroke-width="1.51"/><path d="M355,471L-32,687L371,759Z" fill="#f6b71b" stroke="#f6b71b" stroke-width="1.51"/><path d="M-277,2580L-368,2817L5,2621Z" fill="#f2b00d" stroke="#f2b00d" stroke-width="1.51"/><path d="M-394,1857L-368,2817L-346,2047Z" fill="#f3b31e" stroke="#f3b31e" stroke-width="1.51"/><path d="M-32,687L-287,898L-119,985Z" fill="#f3b41f" stroke="#f3b41f" stroke-width="1.51"/><path d="M532,3525L728,3264L622,3199Z" fill="#ffc02e" stroke="#ffc02e" stroke-width="1.51"/><path d="M1956,495L1658,457L1656,804Z" fill="#fcba18" stroke="#fcba18" stroke-width="1.51"/><path d="M1279,429L1101,195L1096,356Z" fill="#f8c03f" stroke="#f8c03f" stroke-width="1.51"/><path d="M2140,3121L2163,3031L1936,2954Z" fill="#ffb801" stroke="#ffb801" stroke-width="1.51"/><path d="M1997,3238L1936,2954L1734,3196Z" fill="#ffb801" stroke="#ffb801" stroke-width="1.51"/><path d="M261,3281L532,3525L622,3199Z" fill="#ffbc17" stroke="#ffbc17" stroke-width="1.51"/><path d="M87,3436L212,3405L261,3281Z" fill="#f7b30a" stroke="#f7b30a" stroke-width="1.51"/><path d="M-52,3301L261,3281L-113,3025Z" fill="#f3ae02" stroke="#f3ae02" stroke-width="1.51"/><path d="M212,3405L532,3525L261,3281Z" fill="#fbb811" stroke="#fbb811" stroke-width="1.51"/><path d="M2111,879L2023,656L1915,981Z" fill="#ffbd1f" stroke="#ffbd1f" stroke-width="1.51"/><path d="M1153,3458L1352,3536L1411,3113Z" fill="#ffc02c" stroke="#ffc02c" stroke-width="1.51"/><path d="M1283,3704L1352,3536L1153,3458Z" fill="#ffc132" stroke="#ffc132" stroke-width="1.51"/><path d="M1950,3429L1997,3238L1734,3196Z" fill="#ffb801" stroke="#ffb801" stroke-width="1.51"/><path d="M1997,3238L2140,3121L1936,2954Z" fill="#ffb700" stroke="#ffb700" stroke-width="1.51"/><path d="M2163,3031L2201,3667L2263,2744Z" fill="#ffb700" stroke="#ffb700" stroke-width="1.51"/><path d="M-324,3174L-52,3301L-113,3025Z" fill="#f2ad00" stroke="#f2ad00" stroke-width="1.51"/><path d="M1352,3536L1746,3440L1411,3113Z" fill="#ffbc15" stroke="#ffbc15" stroke-width="1.51"/><path d="M1446,80L1101,195L1279,429Z" fill="#f7bb32" stroke="#f7bb32" stroke-width="1.51"/><path d="M1096,356L1101,195L907,374Z" fill="#f8c34b" stroke="#f8c34b" stroke-width="1.51"/><path d="M749,168L542,204L501,450Z" fill="#f7ba2d" stroke="#f7ba2d" stroke-width="1.51"/><path d="M756,3536L1026,3672L1153,3458Z" fill="#ffc84f" stroke="#ffc84f" stroke-width="1.51"/><path d="M532,3525L734,3649L756,3536Z" fill="#ffc134" stroke="#ffc134" stroke-width="1.51"/><path d="M588,3688L734,3649L532,3525Z" fill="#ffc02d" stroke="#ffc02d" stroke-width="1.51"/><path d="M588,3688L532,3525L285,3773Z" fill="#ffbc17" stroke="#ffbc17" stroke-width="1.51"/><path d="M-52,3301L87,3436L261,3281Z" fill="#f5b005" stroke="#f5b005" stroke-width="1.51"/><path d="M1658,457L1617,170L1279,429Z" fill="#f8b81b" stroke="#f8b81b" stroke-width="1.51"/><path d="M2023,656L1956,495L1656,804Z" fill="#fdba16" stroke="#fdba16" stroke-width="1.51"/><path d="M1739,3726L1950,3429L1746,3440Z" fill="#ffb806" stroke="#ffb806" stroke-width="1.51"/><path d="M734,3649L1026,3672L756,3536Z" fill="#ffc545" stroke="#ffc545" stroke-width="1.51"/><path d="M-29,358L-232,606L-32,687Z" fill="#efae11" stroke="#efae11" stroke-width="1.51"/><path d="M-32,687L-232,606L-287,898Z" fill="#f2b115" stroke="#f2b115" stroke-width="1.51"/><path d="M749,168L501,450L907,374Z" fill="#f8bf3b" stroke="#f8bf3b" stroke-width="1.51"/><path d="M1101,195L749,168L907,374Z" fill="#f8c34d" stroke="#f8c34d" stroke-width="1.51"/><path d="M-29,358L-32,687L355,471Z" fill="#f0b014" stroke="#f0b014" stroke-width="1.51"/><path d="M-52,3301L-293,3494L87,3436Z" fill="#f2ad00" stroke="#f2ad00" stroke-width="1.51"/><path d="M-368,2817L-324,3174L-113,3025Z" fill="#f2ae02" stroke="#f2ae02" stroke-width="1.51"/><path d="M734,3649L588,3688L1026,3672Z" fill="#ffc43f" stroke="#ffc43f" stroke-width="1.51"/><path d="M285,3773L532,3525L212,3405Z" fill="#fcb812" stroke="#fcb812" stroke-width="1.51"/><path d="M1746,3440L1950,3429L1734,3196Z" fill="#ffb806" stroke="#ffb806" stroke-width="1.51"/><path d="M1997,3238L2117,3431L2140,3121Z" fill="#ffb700" stroke="#ffb700" stroke-width="1.51"/><path d="M1739,3726L1746,3440L1352,3536Z" fill="#ffba11" stroke="#ffba11" stroke-width="1.51"/><path d="M1026,3672L1283,3704L1153,3458Z" fill="#ffc33e" stroke="#ffc33e" stroke-width="1.51"/><path d="M285,3773L1283,3704L1026,3672Z" fill="#ffc648" stroke="#ffc648" stroke-width="1.51"/><path d="M75,190L-29,358L355,471Z" fill="#efae11" stroke="#efae11" stroke-width="1.51"/><path d="M542,204L351,163L501,450Z" fill="#f6b71b" stroke="#f6b71b" stroke-width="1.51"/><path d="M459,-116L351,163L542,204Z" fill="#f3b317" stroke="#f3b317" stroke-width="1.51"/><path d="M2023,656L2249,600L1956,495Z" fill="#fcb913" stroke="#fcb913" stroke-width="1.51"/><path d="M2111,879L2249,600L2023,656Z" fill="#febb16" stroke="#febb16" stroke-width="1.51"/><path d="M2306,1506L2249,600L2200,1253Z" fill="#ffc236" stroke="#ffc236" stroke-width="1.51"/><path d="M1839,90L1658,457L1956,495Z" fill="#f8b510" stroke="#f8b510" stroke-width="1.51"/><path d="M1839,90L1617,170L1658,457Z" fill="#f6b412" stroke="#f6b412" stroke-width="1.51"/><path d="M1101,195L840,-23L749,168Z" fill="#f6c04a" stroke="#f6c04a" stroke-width="1.51"/><path d="M749,168L459,-116L542,204Z" fill="#f4b728" stroke="#f4b728" stroke-width="1.51"/><path d="M-232,606L-302,479L-287,898Z" fill="#f0b013" stroke="#f0b013" stroke-width="1.51"/><path d="M-287,898L-302,479L-394,1857Z" fill="#f3b731" stroke="#f3b731" stroke-width="1.51"/><path d="M-29,358L-302,479L-232,606Z" fill="#eead0f" stroke="#eead0f" stroke-width="1.51"/><path d="M-201,72L-302,479L-29,358Z" fill="#eba909" stroke="#eba909" stroke-width="1.51"/><path d="M1617,170L1446,80L1279,429Z" fill="#f6b61b" stroke="#f6b61b" stroke-width="1.51"/><path d="M1950,3429L2117,3431L1997,3238Z" fill="#ffb700" stroke="#ffb700" stroke-width="1.51"/><path d="M2140,3121L2201,3667L2163,3031Z" fill="#ffb700" stroke="#ffb700" stroke-width="1.51"/><path d="M2201,3667L2117,3431L1950,3429Z" fill="#ffb700" stroke="#ffb700" stroke-width="1.51"/><path d="M351,163L75,190L355,471Z" fill="#f1b114" stroke="#f1b114" stroke-width="1.51"/><path d="M1135,-24L840,-23L1101,195Z" fill="#f5be48" stroke="#f5be48" stroke-width="1.51"/><path d="M351,163L173,-21L75,190Z" fill="#edac0e" stroke="#edac0e" stroke-width="1.51"/><path d="M1446,80L1135,-24L1101,195Z" fill="#f4b935" stroke="#f4b935" stroke-width="1.51"/><path d="M588,3688L285,3773L1026,3672Z" fill="#ffc02f" stroke="#ffc02f" stroke-width="1.51"/><path d="M87,3436L285,3773L212,3405Z" fill="#f7b30b" stroke="#f7b30b" stroke-width="1.51"/><path d="M-85,3805L285,3773L87,3436Z" fill="#f5b005" stroke="#f5b005" stroke-width="1.51"/><path d="M2031,3845L1739,3726L1283,3704Z" fill="#ffba0d" stroke="#ffba0d" stroke-width="1.51"/><path d="M1283,3704L1739,3726L1352,3536Z" fill="#ffbc17" stroke="#ffbc17" stroke-width="1.51"/><path d="M1617,170L1563,-56L1446,80Z" fill="#f3b214" stroke="#f3b214" stroke-width="1.51"/><path d="M2249,600L2192,383L1956,495Z" fill="#fbb711" stroke="#fbb711" stroke-width="1.51"/><path d="M-324,3174L-293,3494L-52,3301Z" fill="#f2ad00" stroke="#f2ad00" stroke-width="1.51"/><path d="M-363,3834L-293,3494L-324,3174Z" fill="#f2ad00" stroke="#f2ad00" stroke-width="1.51"/><path d="M2192,383L1839,90L1956,495Z" fill="#f7b30b" stroke="#f7b30b" stroke-width="1.51"/><path d="M1446,80L1378,-76L1135,-24Z" fill="#f3b528" stroke="#f3b528" stroke-width="1.51"/><path d="M1563,-56L1378,-76L1446,80Z" fill="#f2b215" stroke="#f2b215" stroke-width="1.51"/><path d="M1135,-24L871,-293L840,-23Z" fill="#f4bf4d" stroke="#f4bf4d" stroke-width="1.51"/><path d="M1839,90L1563,-56L1617,170Z" fill="#f3b10f" stroke="#f3b10f" stroke-width="1.51"/><path d="M459,-116L749,168L840,-23Z" fill="#f3b833" stroke="#f3b833" stroke-width="1.51"/><path d="M459,-116L173,-21L351,163Z" fill="#eeae11" stroke="#eeae11" stroke-width="1.51"/><path d="M75,190L-201,72L-29,358Z" fill="#e9a806" stroke="#e9a806" stroke-width="1.51"/><path d="M871,-293L459,-116L840,-23Z" fill="#f3b937" stroke="#f3b937" stroke-width="1.51"/><path d="M285,3773L2031,3845L1283,3704Z" fill="#ffc239" stroke="#ffc239" stroke-width="1.51"/><path d="M-293,3494L-85,3805L87,3436Z" fill="#f2ad00" stroke="#f2ad00" stroke-width="1.51"/><path d="M2031,3845L2201,3667L1950,3429Z" fill="#ffb700" stroke="#ffb700" stroke-width="1.51"/><path d="M2117,3431L2201,3667L2140,3121Z" fill="#ffb700" stroke="#ffb700" stroke-width="1.51"/><path d="M-28,-215L-201,72L173,-21Z" fill="#e6a400" stroke="#e6a400" stroke-width="1.51"/><path d="M173,-21L-201,72L75,190Z" fill="#e8a603" stroke="#e8a603" stroke-width="1.51"/><path d="M1739,3726L2031,3845L1950,3429Z" fill="#ffb700" stroke="#ffb700" stroke-width="1.51"/><path d="M-85,3805L2031,3845L285,3773Z" fill="#ffc33b" stroke="#ffc33b" stroke-width="1.51"/><path d="M1176,-406L871,-293L1135,-24Z" fill="#f3bc45" stroke="#f3bc45" stroke-width="1.51"/><path d="M340,-469L-28,-215L173,-21Z" fill="#eaa908" stroke="#eaa908" stroke-width="1.51"/><path d="M1176,-406L1135,-24L1378,-76Z" fill="#f3b834" stroke="#f3b834" stroke-width="1.51"/><path d="M1378,-417L1176,-406L1378,-76Z" fill="#f3b62a" stroke="#f3b62a" stroke-width="1.51"/><path d="M1839,90L1875,-210L1563,-56Z" fill="#f2af08" stroke="#f2af08" stroke-width="1.51"/><path d="M2192,383L2106,-45L1839,90Z" fill="#f5b005" stroke="#f5b005" stroke-width="1.51"/><path d="M2249,600L2298,82L2192,383Z" fill="#f8b40c" stroke="#f8b40c" stroke-width="1.51"/><path d="M2306,1506L2298,82L2249,600Z" fill="#ffbb17" stroke="#ffbb17" stroke-width="1.51"/><path d="M2298,82L2106,-45L2192,383Z" fill="#f5b005" stroke="#f5b005" stroke-width="1.51"/><path d="M-293,3494L-363,3834L-85,3805Z" fill="#f2ad00" stroke="#f2ad00" stroke-width="1.51"/><path d="M-85,3805L-363,3834L2031,3845Z" fill="#ffbe20" stroke="#ffbe20" stroke-width="1.51"/><path d="M-368,2817L-363,3834L-324,3174Z" fill="#f2ad00" stroke="#f2ad00" stroke-width="1.51"/><path d="M-394,1857L-363,3834L-368,2817Z" fill="#f2af08" stroke="#f2af08" stroke-width="1.51"/><path d="M1712,-430L1875,-210L2036,-431Z" fill="#f2ae02" stroke="#f2ae02" stroke-width="1.51"/><path d="M2106,-45L1875,-210L1839,90Z" fill="#f2ad00" stroke="#f2ad00" stroke-width="1.51"/><path d="M340,-469L173,-21L459,-116Z" fill="#eead10" stroke="#eead10" stroke-width="1.51"/><path d="M1378,-417L1378,-76L1563,-56Z" fill="#f2b216" stroke="#f2b216" stroke-width="1.51"/><path d="M646,-419L459,-116L871,-293Z" fill="#f3b730" stroke="#f3b730" stroke-width="1.51"/><path d="M1176,-406L646,-419L871,-293Z" fill="#f4be48" stroke="#f4be48" stroke-width="1.51"/><path d="M1176,-406L340,-469L646,-419Z" fill="#f3b937" stroke="#f3b937" stroke-width="1.51"/><path d="M1712,-430L1378,-417L1563,-56Z" fill="#f2b112" stroke="#f2b112" stroke-width="1.51"/><path d="M-217,-468L-339,-159L-28,-215Z" fill="#e6a400" stroke="#e6a400" stroke-width="1.51"/><path d="M-28,-215L-339,-159L-201,72Z" fill="#e6a400" stroke="#e6a400" stroke-width="1.51"/><path d="M-201,72L-339,-159L-302,479Z" fill="#e8a604" stroke="#e8a604" stroke-width="1.51"/><path d="M-302,479L-339,-159L-394,1857Z" fill="#f2b115" stroke="#f2b115" stroke-width="1.51"/><path d="M646,-419L340,-469L459,-116Z" fill="#f2b216" stroke="#f2b216" stroke-width="1.51"/><path d="M1378,-417L340,-469L1176,-406Z" fill="#f4bf4d" stroke="#f4bf4d" stroke-width="1.51"/><path d="M1875,-210L1712,-430L1563,-56Z" fill="#f2af0b" stroke="#f2af0b" stroke-width="1.51"/><path d="M1378,-417L1712,-430L340,-469Z" fill="#f3ba3d" stroke="#f3ba3d" stroke-width="1.51"/><path d="M2036,-431L1875,-210L2106,-45Z" fill="#f2ad00" stroke="#f2ad00" stroke-width="1.51"/><path d="M340,-469L33,-490L-28,-215Z" fill="#e9a706" stroke="#e9a706" stroke-width="1.51"/><path d="M1712,-430L33,-490L340,-469Z" fill="#f3b834" stroke="#f3b834" stroke-width="1.51"/><path d="M1712,-430L2036,-431L33,-490Z" fill="#f3b730" stroke="#f3b730" stroke-width="1.51"/><path d="M2269,-410L2036,-431L2106,-45Z" fill="#f2ad00" stroke="#f2ad00" stroke-width="1.51"/><path d="M33,-490L-217,-468L-28,-215Z" fill="#e6a400" stroke="#e6a400" stroke-width="1.51"/><path d="M2298,82L2269,-410L2106,-45Z" fill="#f2ad00" stroke="#f2ad00" stroke-width="1.51"/></svg>