<svg xmlns="http://www.w3.org/2000/svg" width="1920" height="3080"><path d="M884,1327L1077,1195L555,1037Z" fill="#ffd841" stroke="#ffd841" stroke-width="1.51"/><path d="M1077,1195L1240,995L555,1037Z" fill="#ffd843" stroke="#ffd843" stroke-width="1.51"/><path d="M1240,995L444,735L555,1037Z" fill="#ffd636" stroke="#ffd636" stroke-width="1.51"/><path d="M1240,995L864,259L444,735Z" fill="#fed435" stroke="#fed435" stroke-width="1.51"/><path d="M1366,563L864,259L1240,995Z" fill="#fdd230" stroke="#fdd230" stroke-width="1.51"/><path d="M884,1327L1181,1916L1077,1195Z" fill="#ffda49" stroke="#ffda49" stroke-width="1.51"/><path d="M1077,1195L1658,1175L1240,995Z" fill="#ffd635" stroke="#ffd635" stroke-width="1.51"/><path d="M307,1838L893,1846L884,1327Z" fill="#ffd840" stroke="#ffd840" stroke-width="1.51"/><path d="M1240,995L1693,677L1366,563Z" fill="#fed224" stroke="#fed224" stroke-width="1.51"/><path d="M1602,1606L1658,1175L1077,1195Z" fill="#ffd636" stroke="#ffd636" stroke-width="1.51"/><path d="M555,1037L68,1419L884,1327Z" fill="#ffd535" stroke="#ffd535" stroke-width="1.51"/><path d="M444,735L68,1419L555,1037Z" fill="#fcd12b" stroke="#fcd12b" stroke-width="1.51"/><path d="M893,1846L1181,1916L884,1327Z" fill="#ffda49" stroke="#ffda49" stroke-width="1.51"/><path d="M1366,563L1056,52L864,259Z" fill="#f7cd2e" stroke="#f7cd2e" stroke-width="1.51"/><path d="M1658,1175L1693,677L1240,995Z" fill="#ffd52f" stroke="#ffd52f" stroke-width="1.51"/><path d="M1181,1916L1602,1606L1077,1195Z" fill="#ffd841" stroke="#ffd841" stroke-width="1.51"/><path d="M68,1419L307,1838L884,1327Z" fill="#fed539" stroke="#fed539" stroke-width="1.51"/><path d="M893,1846L1089,2093L1181,1916Z" fill="#ffd840" stroke="#ffd840" stroke-width="1.51"/><path d="M-263,793L-204,1334L68,1419Z" fill="#f3c726" stroke="#f3c726" stroke-width="1.51"/><path d="M864,259L371,188L444,735Z" fill="#f9cd23" stroke="#f9cd23" stroke-width="1.51"/><path d="M864,259L591,12L371,188Z" fill="#f5c921" stroke="#f5c921" stroke-width="1.51"/><path d="M1574,-41L1056,52L1366,563Z" fill="#f6ca20" stroke="#f6ca20" stroke-width="1.51"/><path d="M1056,52L591,12L864,259Z" fill="#f4ca2d" stroke="#f4ca2d" stroke-width="1.51"/><path d="M1181,1916L1676,2177L1602,1606Z" fill="#ffd533" stroke="#ffd533" stroke-width="1.51"/><path d="M922,2326L1089,2093L893,1846Z" fill="#ffd840" stroke="#ffd840" stroke-width="1.51"/><path d="M-115,2067L163,2079L307,1838Z" fill="#f6ca26" stroke="#f6ca26" stroke-width="1.51"/><path d="M-263,793L68,1419L444,735Z" fill="#f5c921" stroke="#f5c921" stroke-width="1.51"/><path d="M371,188L-263,793L444,735Z" fill="#f4c717" stroke="#f4c717" stroke-width="1.51"/><path d="M1693,677L1810,390L1366,563Z" fill="#fcd02a" stroke="#fcd02a" stroke-width="1.51"/><path d="M2092,469L1810,390L1693,677Z" fill="#fbd235" stroke="#fbd235" stroke-width="1.51"/><path d="M2092,469L1693,677L2196,718Z" fill="#fdd439" stroke="#fdd439" stroke-width="1.51"/><path d="M307,1838L922,2326L893,1846Z" fill="#ffd639" stroke="#ffd639" stroke-width="1.51"/><path d="M-115,2067L307,1838L68,1419Z" fill="#f5cb2c" stroke="#f5cb2c" stroke-width="1.51"/><path d="M1089,2093L1676,2177L1181,1916Z" fill="#ffd533" stroke="#ffd533" stroke-width="1.51"/><path d="M163,2079L922,2326L307,1838Z" fill="#ffd32c" stroke="#ffd32c" stroke-width="1.51"/><path d="M1810,390L1574,-41L1366,563Z" fill="#f8cc25" stroke="#f8cc25" stroke-width="1.51"/><path d="M1056,52L1075,-519L591,12Z" fill="#f3c92e" stroke="#f3c92e" stroke-width="1.51"/><path d="M371,188L-344,182L-263,793Z" fill="#ecbf0c" stroke="#ecbf0c" stroke-width="1.51"/><path d="M591,12L66,-77L371,188Z" fill="#efc211" stroke="#efc211" stroke-width="1.51"/><path d="M226,-579L66,-77L591,12Z" fill="#edc00e" stroke="#edc00e" stroke-width="1.51"/><path d="M2196,718L1693,677L1658,1175Z" fill="#ffd73a" stroke="#ffd73a" stroke-width="1.51"/><path d="M1810,390L2260,-84L1574,-41Z" fill="#f4ca30" stroke="#f4ca30" stroke-width="1.51"/><path d="M-334,1913L-115,2067L68,1419Z" fill="#f3c829" stroke="#f3c829" stroke-width="1.51"/><path d="M-263,793L-553,1118L-204,1334Z" fill="#f3c722" stroke="#f3c722" stroke-width="1.51"/><path d="M-684,935L-553,1118L-263,793Z" fill="#f2c61e" stroke="#f2c61e" stroke-width="1.51"/><path d="M163,2079L296,2643L922,2326Z" fill="#ffd225" stroke="#ffd225" stroke-width="1.51"/><path d="M-334,1913L68,1419L-204,1334Z" fill="#f3c930" stroke="#f3c930" stroke-width="1.51"/><path d="M2207,1508L2196,718L1658,1175Z" fill="#ffd944" stroke="#ffd944" stroke-width="1.51"/><path d="M1602,1606L2207,1508L1658,1175Z" fill="#ffda47" stroke="#ffda47" stroke-width="1.51"/><path d="M1225,2724L1676,2177L1089,2093Z" fill="#ffd42b" stroke="#ffd42b" stroke-width="1.51"/><path d="M2150,1957L2207,1508L1602,1606Z" fill="#ffda4a" stroke="#ffda4a" stroke-width="1.51"/><path d="M-656,1609L-334,1913L-204,1334Z" fill="#f3c92f" stroke="#f3c92f" stroke-width="1.51"/><path d="M66,-77L-344,182L371,188Z" fill="#e8ba04" stroke="#e8ba04" stroke-width="1.51"/><path d="M-495,234L-684,935L-263,793Z" fill="#f0c313" stroke="#f0c313" stroke-width="1.51"/><path d="M-553,1118L-656,1609L-204,1334Z" fill="#f3c82c" stroke="#f3c82c" stroke-width="1.51"/><path d="M-344,182L-495,234L-263,793Z" fill="#ecbf0c" stroke="#ecbf0c" stroke-width="1.51"/><path d="M-752,-144L-495,234L-344,182Z" fill="#e7b903" stroke="#e7b903" stroke-width="1.51"/><path d="M1574,-41L1075,-519L1056,52Z" fill="#f3c723" stroke="#f3c723" stroke-width="1.51"/><path d="M-684,935L-656,1609L-553,1118Z" fill="#f3c827" stroke="#f3c827" stroke-width="1.51"/><path d="M1676,2177L2150,1957L1602,1606Z" fill="#ffd841" stroke="#ffd841" stroke-width="1.51"/><path d="M66,-77L-175,-204L-344,182Z" fill="#e6b800" stroke="#e6b800" stroke-width="1.51"/><path d="M226,-579L-175,-204L66,-77Z" fill="#e7b902" stroke="#e7b902" stroke-width="1.51"/><path d="M1676,2177L1981,2260L2150,1957Z" fill="#ffd840" stroke="#ffd840" stroke-width="1.51"/><path d="M1841,2714L1981,2260L1676,2177Z" fill="#ffd739" stroke="#ffd739" stroke-width="1.51"/><path d="M1075,-519L910,-621L591,12Z" fill="#f3c82c" stroke="#f3c82c" stroke-width="1.51"/><path d="M2196,718L2586,465L2092,469Z" fill="#fcd338" stroke="#fcd338" stroke-width="1.51"/><path d="M2260,-84L1649,-447L1574,-41Z" fill="#f3c82c" stroke="#f3c82c" stroke-width="1.51"/><path d="M1574,-41L1649,-447L1075,-519Z" fill="#f2c516" stroke="#f2c516" stroke-width="1.51"/><path d="M2684,1267L2482,719L2196,718Z" fill="#ffd73e" stroke="#ffd73e" stroke-width="1.51"/><path d="M2684,1267L2196,718L2207,1508Z" fill="#ffd944" stroke="#ffd944" stroke-width="1.51"/><path d="M-228,2524L296,2643L163,2079Z" fill="#f4c81d" stroke="#f4c81d" stroke-width="1.51"/><path d="M922,2326L1225,2724L1089,2093Z" fill="#ffd638" stroke="#ffd638" stroke-width="1.51"/><path d="M-228,2524L163,2079L-115,2067Z" fill="#f2c61a" stroke="#f2c61a" stroke-width="1.51"/><path d="M-228,2524L-115,2067L-468,2357Z" fill="#f2c516" stroke="#f2c516" stroke-width="1.51"/><path d="M2260,-84L1810,390L2092,469Z" fill="#f7ce34" stroke="#f7ce34" stroke-width="1.51"/><path d="M1075,-519L1649,-447L910,-621Z" fill="#f3c724" stroke="#f3c724" stroke-width="1.51"/><path d="M927,2795L1225,2724L922,2326Z" fill="#ffd840" stroke="#ffd840" stroke-width="1.51"/><path d="M910,-621L226,-579L591,12Z" fill="#f2c61c" stroke="#f2c61c" stroke-width="1.51"/><path d="M296,2643L927,2795L922,2326Z" fill="#ffd638" stroke="#ffd638" stroke-width="1.51"/><path d="M296,2643L887,3144L927,2795Z" fill="#ffd83f" stroke="#ffd83f" stroke-width="1.51"/><path d="M-468,2357L-115,2067L-334,1913Z" fill="#f3c61e" stroke="#f3c61e" stroke-width="1.51"/><path d="M2586,465L2260,-84L2092,469Z" fill="#f7ce35" stroke="#f7ce35" stroke-width="1.51"/><path d="M2684,1267L2586,465L2482,719Z" fill="#ffd73c" stroke="#ffd73c" stroke-width="1.51"/><path d="M2482,719L2586,465L2196,718Z" fill="#fdd439" stroke="#fdd439" stroke-width="1.51"/><path d="M-656,1609L-468,2357L-334,1913Z" fill="#f3c724" stroke="#f3c724" stroke-width="1.51"/><path d="M2150,1957L2588,1653L2207,1508Z" fill="#ffda4a" stroke="#ffda4a" stroke-width="1.51"/><path d="M2492,2098L2588,1653L2150,1957Z" fill="#ffd945" stroke="#ffd945" stroke-width="1.51"/><path d="M2588,1653L2684,1267L2207,1508Z" fill="#ffda4c" stroke="#ffda4c" stroke-width="1.51"/><path d="M1660,3121L1841,2714L1225,2724Z" fill="#ffd73b" stroke="#ffd73b" stroke-width="1.51"/><path d="M1225,2724L1841,2714L1676,2177Z" fill="#ffd533" stroke="#ffd533" stroke-width="1.51"/><path d="M1981,2260L2492,2098L2150,1957Z" fill="#ffd840" stroke="#ffd840" stroke-width="1.51"/><path d="M226,-579L-153,-640L-175,-204Z" fill="#e6b800" stroke="#e6b800" stroke-width="1.51"/><path d="M-175,-204L-752,-144L-344,182Z" fill="#e6b800" stroke="#e6b800" stroke-width="1.51"/><path d="M910,-621L-153,-640L226,-579Z" fill="#eec110" stroke="#eec110" stroke-width="1.51"/><path d="M2274,2589L2492,2098L1981,2260Z" fill="#ffd73b" stroke="#ffd73b" stroke-width="1.51"/><path d="M2588,1653L2456,3261L2684,1267Z" fill="#ffd841" stroke="#ffd841" stroke-width="1.51"/><path d="M-684,935L-854,3232L-656,1609Z" fill="#f3c725" stroke="#f3c725" stroke-width="1.51"/><path d="M-495,234L-752,-144L-684,935Z" fill="#ebbe0b" stroke="#ebbe0b" stroke-width="1.51"/><path d="M-526,-663L-752,-144L-175,-204Z" fill="#e6b800" stroke="#e6b800" stroke-width="1.51"/><path d="M2498,-227L2283,-357L2260,-84Z" fill="#f3c931" stroke="#f3c931" stroke-width="1.51"/><path d="M2260,-84L2283,-357L1649,-447Z" fill="#f3c931" stroke="#f3c931" stroke-width="1.51"/><path d="M1649,-447L2696,-655L910,-621Z" fill="#f3c829" stroke="#f3c829" stroke-width="1.51"/><path d="M-468,2357L-571,2510L-228,2524Z" fill="#f2c61c" stroke="#f2c61c" stroke-width="1.51"/><path d="M77,3342L887,3144L296,2643Z" fill="#fed539" stroke="#fed539" stroke-width="1.51"/><path d="M-656,1609L-571,2510L-468,2357Z" fill="#f2c61c" stroke="#f2c61c" stroke-width="1.51"/><path d="M927,2795L1381,3123L1225,2724Z" fill="#ffd841" stroke="#ffd841" stroke-width="1.51"/><path d="M-36,3225L296,2643L-228,2524Z" fill="#f3c829" stroke="#f3c829" stroke-width="1.51"/><path d="M2586,465L2498,-227L2260,-84Z" fill="#f4ca31" stroke="#f4ca31" stroke-width="1.51"/><path d="M1841,2714L2274,2589L1981,2260Z" fill="#ffd840" stroke="#ffd840" stroke-width="1.51"/><path d="M2404,2808L2274,2589L1841,2714Z" fill="#ffd944" stroke="#ffd944" stroke-width="1.51"/><path d="M887,3144L1381,3123L927,2795Z" fill="#ffd948" stroke="#ffd948" stroke-width="1.51"/><path d="M-153,-640L-526,-663L-175,-204Z" fill="#e6b800" stroke="#e6b800" stroke-width="1.51"/><path d="M910,-621L-526,-663L-153,-640Z" fill="#e8ba04" stroke="#e8ba04" stroke-width="1.51"/><path d="M1944,3285L1660,3121L1699,3580Z" fill="#ffd948" stroke="#ffd948" stroke-width="1.51"/><path d="M1381,3123L1660,3121L1225,2724Z" fill="#ffd639" stroke="#ffd639" stroke-width="1.51"/><path d="M-571,2510L-36,3225L-228,2524Z" fill="#f3c827" stroke="#f3c827" stroke-width="1.51"/><path d="M887,3144L1033,3632L1381,3123Z" fill="#ffda48" stroke="#ffda48" stroke-width="1.51"/><path d="M2274,2589L2404,2808L2492,2098Z" fill="#ffd840" stroke="#ffd840" stroke-width="1.51"/><path d="M2492,2098L2456,3261L2588,1653Z" fill="#ffd73c" stroke="#ffd73c" stroke-width="1.51"/><path d="M1944,3285L2404,2808L1841,2714Z" fill="#ffda4a" stroke="#ffda4a" stroke-width="1.51"/><path d="M77,3342L827,3456L887,3144Z" fill="#ffd840" stroke="#ffd840" stroke-width="1.51"/><path d="M-36,3225L77,3342L296,2643Z" fill="#f6cc33" stroke="#f6cc33" stroke-width="1.51"/><path d="M1699,3580L1660,3121L1381,3123Z" fill="#ffd840" stroke="#ffd840" stroke-width="1.51"/><path d="M1660,3121L1944,3285L1841,2714Z" fill="#ffda48" stroke="#ffda48" stroke-width="1.51"/><path d="M2586,465L2696,-655L2498,-227Z" fill="#f3c931" stroke="#f3c931" stroke-width="1.51"/><path d="M2498,-227L2696,-655L2283,-357Z" fill="#f3c931" stroke="#f3c931" stroke-width="1.51"/><path d="M2283,-357L2696,-655L1649,-447Z" fill="#f3c931" stroke="#f3c931" stroke-width="1.51"/><path d="M910,-621L2696,-655L-526,-663Z" fill="#f3c92e" stroke="#f3c92e" stroke-width="1.51"/><path d="M2684,1267L2696,-655L2586,465Z" fill="#f9d035" stroke="#f9d035" stroke-width="1.51"/><path d="M827,3456L1033,3632L887,3144Z" fill="#ffda4c" stroke="#ffda4c" stroke-width="1.51"/><path d="M190,3802L1033,3632L827,3456Z" fill="#ffd843" stroke="#ffd843" stroke-width="1.51"/><path d="M77,3342L190,3802L827,3456Z" fill="#fcd339" stroke="#fcd339" stroke-width="1.51"/><path d="M-36,3225L-230,3484L77,3342Z" fill="#f3c931" stroke="#f3c931" stroke-width="1.51"/><path d="M-854,3232L-230,3484L-36,3225Z" fill="#f3c931" stroke="#f3c931" stroke-width="1.51"/><path d="M1033,3632L1699,3580L1381,3123Z" fill="#ffd73e" stroke="#ffd73e" stroke-width="1.51"/><path d="M1944,3285L2456,3261L2404,2808Z" fill="#ffdb4d" stroke="#ffdb4d" stroke-width="1.51"/><path d="M2404,2808L2456,3261L2492,2098Z" fill="#ffd945" stroke="#ffd945" stroke-width="1.51"/><path d="M2415,3418L2456,3261L1944,3285Z" fill="#ffdb4d" stroke="#ffdb4d" stroke-width="1.51"/><path d="M-571,2510L-854,3232L-36,3225Z" fill="#f3c92e" stroke="#f3c92e" stroke-width="1.51"/><path d="M-656,1609L-854,3232L-571,2510Z" fill="#f2c61c" stroke="#f2c61c" stroke-width="1.51"/><path d="M-752,-144L-854,3232L-684,935Z" fill="#f3c82b" stroke="#f3c82b" stroke-width="1.51"/><path d="M-766,3532L190,3802L-230,3484Z" fill="#f3c931" stroke="#f3c931" stroke-width="1.51"/><path d="M-230,3484L190,3802L77,3342Z" fill="#f3ca31" stroke="#f3ca31" stroke-width="1.51"/><path d="M1033,3632L2217,3712L1699,3580Z" fill="#ffd843" stroke="#ffd843" stroke-width="1.51"/><path d="M2217,3712L2415,3418L1944,3285Z" fill="#ffdb4d" stroke="#ffdb4d" stroke-width="1.51"/><path d="M-854,3232L-766,3532L-230,3484Z" fill="#f3c931" stroke="#f3c931" stroke-width="1.51"/><path d="M190,3802L2217,3712L1033,3632Z" fill="#ffd946" stroke="#ffd946" stroke-width="1.51"/><path d="M1699,3580L2217,3712L1944,3285Z" fill="#ffdb4d" stroke="#ffdb4d" stroke-width="1.51"/></svg>